<svg width="40" height="40" viewBox="0 0 40 40" fill="none" xmlns="http://www.w3.org/2000/svg">
<path d="M20 0C16.0444 0 12.1776 1.17298 8.8886 3.37061C5.59962 5.56824 3.03617 8.69181 1.52242 12.3463C0.00866568 16.0009 -0.387401 20.0222 0.384303 23.9018C1.15601 27.7814 3.06082 31.3451 5.85787 34.1421C8.65492 36.9392 12.2186 38.844 16.0982 39.6157C19.9778 40.3874 23.9992 39.9913 27.6537 38.4776C31.3082 36.9638 34.4318 34.4004 36.6294 31.1114C38.827 27.8224 40 23.9556 40 20C40 17.3736 39.4827 14.7728 38.4776 12.3463C37.4725 9.91982 35.9993 7.71504 34.1421 5.85786C32.285 4.00069 30.0802 2.5275 27.6537 1.52241C25.2272 0.517315 22.6264 0 20 0ZM32 19.6C32.0311 19.9456 31.9617 20.2929 31.8 20.6L27.6 30.4C27.381 30.8996 27.0147 31.3205 26.5501 31.6064C26.0855 31.8923 25.5447 32.0296 25 32H14C12.9391 32 11.9217 31.5786 11.1716 30.8284C10.4214 30.0783 10 29.0609 10 28V18C9.98003 17.6285 10.0413 17.2572 10.1794 16.9118C10.3176 16.5664 10.5294 16.2552 10.8 16L20 6L21.38 7.38C21.7434 7.75833 21.9566 8.25596 21.98 8.78V9.18L20.82 16H30C30.5304 16 31.0392 16.2107 31.4142 16.5858C31.7893 16.9609 32 17.4696 32 18V19.6Z" fill="black"/>
</svg>
